<?xml version="1.0" standalone="no"?>
<!DOCTYPE svg PUBLIC "-//W3C//DTD SVG 20010904//EN"
 "http://www.w3.org/TR/2001/REC-SVG-20010904/DTD/svg10.dtd">
<svg version="1.0" xmlns="http://www.w3.org/2000/svg"
 width="150.000000pt" height="150.000000pt" viewBox="0 0 150.000000 150.000000"
 preserveAspectRatio="xMidYMid meet">
<metadata>
Created by potrace 1.14, written by Peter Selinger 2001-2017
</metadata>
<g transform="translate(0.000000,150.000000) scale(0.100000,-0.100000)"
fill="#000000" stroke="none">
<path d="M633 1448 c-79 -84 -124 -272 -98 -410 l7 -38 -43 24 c-116 64 -316
78 -414 29 -16 -9 -32 -17 -34 -19 -2 -2 20 -29 48 -61 58 -65 60 -62 -41 -83
-32 -6 -58 -15 -58 -19 0 -4 14 -29 31 -55 38 -56 110 -112 199 -154 64 -30
166 -55 185 -45 5 3 -6 -10 -26 -29 -67 -63 -139 -192 -154 -275 -6 -41 -6
-42 27 -46 30 -3 29 -4 -9 -5 -23 -1 -45 -7 -49 -14 -14 -22 -7 -220 8 -229
21 -14 212 -11 226 3 17 17 16 212 -1 226 -7 6 -35 12 -62 15 -48 3 -48 3 13
5 l62 2 0 125 c0 108 2 125 18 133 9 4 68 8 130 7 93 0 112 2 113 15 0 8 0 56
0 105 0 50 3 82 7 73 4 -10 6 -54 5 -98 -1 -51 2 -82 10 -87 6 -4 56 -7 111
-8 133 -1 134 0 131 134 -2 56 -6 105 -10 109 -3 4 -52 10 -108 13 l-102 5
108 2 107 2 0 106 c0 66 -4 103 -10 99 -6 -4 -7 6 -2 27 8 40 8 148 0 204 -14
88 -86 229 -123 241 -5 2 -22 -18 -37 -45 -54 -94 -50 -94 -92 -19 -21 37 -39
67 -40 67 -1 0 -16 -15 -33 -32z m98 -679 c-12 -13 -21 -18 -21 -12 0 14 31
46 37 39 3 -3 -4 -15 -16 -27z"/>
<path d="M1260 1355 c-15 -18 -16 -211 -1 -229 16 -19 219 -15 231 4 6 8 10
59 10 112 0 127 -1 128 -129 128 -75 0 -102 -4 -111 -15z"/>
<path d="M1002 1094 c-13 -9 -17 -32 -18 -105 -2 -142 -5 -138 121 -137 74 0
110 4 119 14 18 18 19 196 1 221 -11 14 -30 17 -110 18 -60 0 -103 -4 -113
-11z"/>
<path d="M1259 774 c-15 -18 -15 -212 0 -227 18 -18 220 -15 231 3 5 8 10 59
10 112 0 128 -2 129 -131 127 -69 -1 -102 -6 -110 -15z"/>
<path d="M490 520 c-24 -6 -25 -8 -28 -114 -2 -72 1 -113 9 -122 16 -20 213
-18 229 1 15 18 16 213 1 228 -12 12 -169 17 -211 7z"/>
<path d="M997 512 c-17 -21 -16 -211 1 -229 16 -15 199 -17 223 -2 20 12 23
200 4 226 -11 15 -29 18 -115 18 -75 1 -104 -3 -113 -13z"/>
<path d="M746 255 c-19 -10 -21 -21 -23 -110 -1 -54 3 -107 8 -117 8 -16 23
-18 112 -18 56 0 109 5 117 10 12 7 15 32 14 115 0 61 -4 109 -11 116 -14 14
-191 17 -217 4z"/>
<path d="M1270 258 c-16 -6 -20 -18 -21 -60 -3 -107 3 -173 14 -180 20 -13
212 -9 225 4 14 14 17 205 4 226 -9 14 -189 22 -222 10z"/>
</g>
</svg>
